<svg xmlns="http://www.w3.org/2000/svg" viewBox="0 0 468.6 191.6" fill="#c2c2c2"><circle cx="366" cy="29.8" r="29.8"/><path d="M165 57.5c-2.6-12-15.5-23.3-24.8-27.5s-25.5-7.3-50.3-7 -61 2.8-61 2.8L0 188.5h56.5l6.8-39h17l13.3 39h65.3c0 0-23-51.5-24-53.8 15.3-8.3 25.5-28.8 25.5-28.8C166 93.5 167.6 69.5 165 57.5zM104.3 96.8c-5.5 8-16.3 9.3-16.3 9.3H71.5l6.3-36.5c0 0 1.9 0 12.3 0 10.5 0 15.7 4.5 17.4 8S109.8 88.8 104.3 96.8z"/><path d="M240.5 64.5c-7.4 0-28.3 2.6-45.4 14.3s-26.5 32.1-29.5 44 -3.6 29 0.6 40c4.2 11 16.5 22.1 24.5 25.8s20.2 3.7 30.5 2c10.3-1.7 20.8-10 20.8-10l-2.3 8h54.3l20.3-117.3C314.4 71.2 269 64.5 240.5 64.5zM248.8 141.5c0 0-5.6 7-16.6 7s-14.4-7.4-15.5-9.9 -1.3-12.5 0-16.1 6.3-10.3 10-12.9 9-4.3 14.6-4.3 13.5 1.3 13.5 1.3L248.8 141.5z"/><polygon points="333.8 68.3 388 68.3 366 188.5 312.8 188.5 "/><polygon points="414.4 18.5 468.6 18.5 438.5 188.5 385.3 188.5 "/></svg>